<?xml version="1.0" encoding="utf-8" standalone="no"?>
<!DOCTYPE svg PUBLIC "-//W3C//DTD SVG 1.1//EN"
  "http://www.w3.org/Graphics/SVG/1.1/DTD/svg11.dtd">
<svg xmlns:xlink="http://www.w3.org/1999/xlink" width="720pt" height="432pt" viewBox="0 0 720 432" xmlns="http://www.w3.org/2000/svg" version="1.1">
 <metadata>
  <rdf:RDF xmlns:dc="http://purl.org/dc/elements/1.1/" xmlns:cc="http://creativecommons.org/ns#" xmlns:rdf="http://www.w3.org/1999/02/22-rdf-syntax-ns#">
   <cc:Work>
    <dc:type rdf:resource="http://purl.org/dc/dcmitype/StillImage"/>
    <dc:date>2026-04-20T15:00:11.502192</dc:date>
    <dc:format>image/svg+xml</dc:format>
    <dc:creator>
     <cc:Agent>
      <dc:title>Matplotlib v3.10.8, https://matplotlib.org/</dc:title>
     </cc:Agent>
    </dc:creator>
   </cc:Work>
  </rdf:RDF>
 </metadata>
 <defs>
  <style type="text/css">*{stroke-linejoin: round; stroke-linecap: butt}</style>
 </defs>
 <g id="figure_1">
  <g id="patch_1">
   <path d="M 0 432 
L 720 432 
L 720 0 
L 0 0 
L 0 432 
z
" style="fill: none"/>
  </g>
  <g id="axes_1">
   <g id="patch_2">
    <path d="M 90 384.48 
L 648 384.48 
L 648 51.84 
L 90 51.84 
L 90 384.48 
z
" style="fill: none"/>
   </g>
   <g id="patch_3">
    <path d="M 157.636364 384.48 
L 199.909091 384.48 
L 199.909091 380.927367 
L 157.636364 380.927367 
z
" clip-path="url(#pc352fb9847)" style="fill: #1f77b4; fill-opacity: 0.3; stroke: #000000; stroke-linejoin: miter"/>
   </g>
   <g id="patch_4">
    <path d="M 199.909091 384.48 
L 242.181818 384.48 
L 242.181818 370.15382 
L 199.909091 370.15382 
z
" clip-path="url(#pc352fb9847)" style="fill: #1f77b4; fill-opacity: 0.3; stroke: #000000; stroke-linejoin: miter"/>
   </g>
   <g id="patch_5">
    <path d="M 242.181818 384.48 
L 284.454545 384.48 
L 284.454545 348.389162 
L 242.181818 348.389162 
z
" clip-path="url(#pc352fb9847)" style="fill: #1f77b4; fill-opacity: 0.3; stroke: #000000; stroke-linejoin: miter"/>
   </g>
   <g id="patch_6">
    <path d="M 284.454545 384.48 
L 326.727273 384.48 
L 326.727273 318.882615 
L 284.454545 318.882615 
z
" clip-path="url(#pc352fb9847)" style="fill: #1f77b4; fill-opacity: 0.3; stroke: #000000; stroke-linejoin: miter"/>
   </g>
   <g id="patch_7">
    <path d="M 326.727273 384.48 
L 369 384.48 
L 369 322.241968 
L 326.727273 322.241968 
z
" clip-path="url(#pc352fb9847)" style="fill: #1f77b4; fill-opacity: 0.3; stroke: #000000; stroke-linejoin: miter"/>
   </g>
   <g id="patch_8">
    <path d="M 369 384.48 
L 411.272727 384.48 
L 411.272727 347.481995 
L 369 347.481995 
z
" clip-path="url(#pc352fb9847)" style="fill: #1f77b4; fill-opacity: 0.3; stroke: #000000; stroke-linejoin: miter"/>
   </g>
   <g id="patch_9">
    <path d="M 411.272727 384.48 
L 453.545455 384.48 
L 453.545455 370.742737 
L 411.272727 370.742737 
z
" clip-path="url(#pc352fb9847)" style="fill: #1f77b4; fill-opacity: 0.3; stroke: #000000; stroke-linejoin: miter"/>
   </g>
   <g id="patch_10">
    <path d="M 453.545455 384.48 
L 495.818182 384.48 
L 495.818182 381.0218 
L 453.545455 381.0218 
z
" clip-path="url(#pc352fb9847)" style="fill: #1f77b4; fill-opacity: 0.3; stroke: #000000; stroke-linejoin: miter"/>
   </g>
   <g id="patch_11">
    <path d="M 495.818182 384.48 
L 538.090909 384.48 
L 538.090909 383.959148 
L 495.818182 383.959148 
z
" clip-path="url(#pc352fb9847)" style="fill: #1f77b4; fill-opacity: 0.3; stroke: #000000; stroke-linejoin: miter"/>
   </g>
   <g id="patch_12">
    <path d="M 538.090909 384.48 
L 580.363636 384.48 
L 580.363636 384.445906 
L 538.090909 384.445906 
z
" clip-path="url(#pc352fb9847)" style="fill: #1f77b4; fill-opacity: 0.3; stroke: #000000; stroke-linejoin: miter"/>
   </g>
   <g id="patch_13">
    <path d="M 580.363636 384.48 
L 622.636364 384.48 
L 622.636364 384.478896 
L 580.363636 384.478896 
z
" clip-path="url(#pc352fb9847)" style="fill: #1f77b4; fill-opacity: 0.3; stroke: #000000; stroke-linejoin: miter"/>
   </g>
   <g id="matplotlib.axis_1">
    <g id="xtick_1">
     <g id="line2d_1">
      <path d="M 157.636364 384.48 
L 157.636364 51.84 
" clip-path="url(#pc352fb9847)" style="fill: none; stroke: #b0b0b0; stroke-opacity: 0.3; stroke-width: 0.8; stroke-linecap: square"/>
     </g>
     <g id="line2d_2">
      <defs>
       <path id="mc22c78951b" d="M 0 0 
L 0 3.5 
" style="stroke: #000000; stroke-width: 0.8"/>
      </defs>
      <g>
       <use xlink:href="#mc22c78951b" x="157.636364" y="384.48" style="stroke: #000000; stroke-width: 0.8"/>
      </g>
     </g>
     <g id="text_1">
      <!-- 2 -->
      <g transform="translate(154.455114 399.078438) scale(0.1 -0.1)">
       <defs>
        <path id="DejaVuSans-32" d="M 1228 531 
L 3431 531 
L 3431 0 
L 469 0 
L 469 531 
Q 828 903 1448 1529 
Q 2069 2156 2228 2338 
Q 2531 2678 2651 2914 
Q 2772 3150 2772 3378 
Q 2772 3750 2511 3984 
Q 2250 4219 1831 4219 
Q 1534 4219 1204 4116 
Q 875 4013 500 3803 
L 500 4441 
Q 881 4594 1212 4672 
Q 1544 4750 1819 4750 
Q 2544 4750 2975 4387 
Q 3406 4025 3406 3419 
Q 3406 3131 3298 2873 
Q 3191 2616 2906 2266 
Q 2828 2175 2409 1742 
Q 1991 1309 1228 531 
z
" transform="scale(0.015625)"/>
       </defs>
       <use xlink:href="#DejaVuSans-32"/>
      </g>
     </g>
    </g>
    <g id="xtick_2">
     <g id="line2d_3">
      <path d="M 242.181818 384.48 
L 242.181818 51.84 
" clip-path="url(#pc352fb9847)" style="fill: none; stroke: #b0b0b0; stroke-opacity: 0.3; stroke-width: 0.8; stroke-linecap: square"/>
     </g>
     <g id="line2d_4">
      <g>
       <use xlink:href="#mc22c78951b" x="242.181818" y="384.48" style="stroke: #000000; stroke-width: 0.8"/>
      </g>
     </g>
     <g id="text_2">
      <!-- 4 -->
      <g transform="translate(239.000568 399.078438) scale(0.1 -0.1)">
       <defs>
        <path id="DejaVuSans-34" d="M 2419 4116 
L 825 1625 
L 2419 1625 
L 2419 4116 
z
M 2253 4666 
L 3047 4666 
L 3047 1625 
L 3713 1625 
L 3713 1100 
L 3047 1100 
L 3047 0 
L 2419 0 
L 2419 1100 
L 313 1100 
L 313 1709 
L 2253 4666 
z
" transform="scale(0.015625)"/>
       </defs>
       <use xlink:href="#DejaVuSans-34"/>
      </g>
     </g>
    </g>
    <g id="xtick_3">
     <g id="line2d_5">
      <path d="M 326.727273 384.48 
L 326.727273 51.84 
" clip-path="url(#pc352fb9847)" style="fill: none; stroke: #b0b0b0; stroke-opacity: 0.3; stroke-width: 0.8; stroke-linecap: square"/>
     </g>
     <g id="line2d_6">
      <g>
       <use xlink:href="#mc22c78951b" x="326.727273" y="384.48" style="stroke: #000000; stroke-width: 0.8"/>
      </g>
     </g>
     <g id="text_3">
      <!-- 6 -->
      <g transform="translate(323.546023 399.078438) scale(0.1 -0.1)">
       <defs>
        <path id="DejaVuSans-36" d="M 2113 2584 
Q 1688 2584 1439 2293 
Q 1191 2003 1191 1497 
Q 1191 994 1439 701 
Q 1688 409 2113 409 
Q 2538 409 2786 701 
Q 3034 994 3034 1497 
Q 3034 2003 2786 2293 
Q 2538 2584 2113 2584 
z
M 3366 4563 
L 3366 3988 
Q 3128 4100 2886 4159 
Q 2644 4219 2406 4219 
Q 1781 4219 1451 3797 
Q 1122 3375 1075 2522 
Q 1259 2794 1537 2939 
Q 1816 3084 2150 3084 
Q 2853 3084 3261 2657 
Q 3669 2231 3669 1497 
Q 3669 778 3244 343 
Q 2819 -91 2113 -91 
Q 1303 -91 875 529 
Q 447 1150 447 2328 
Q 447 3434 972 4092 
Q 1497 4750 2381 4750 
Q 2619 4750 2861 4703 
Q 3103 4656 3366 4563 
z
" transform="scale(0.015625)"/>
       </defs>
       <use xlink:href="#DejaVuSans-36"/>
      </g>
     </g>
    </g>
    <g id="xtick_4">
     <g id="line2d_7">
      <path d="M 411.272727 384.48 
L 411.272727 51.84 
" clip-path="url(#pc352fb9847)" style="fill: none; stroke: #b0b0b0; stroke-opacity: 0.3; stroke-width: 0.8; stroke-linecap: square"/>
     </g>
     <g id="line2d_8">
      <g>
       <use xlink:href="#mc22c78951b" x="411.272727" y="384.48" style="stroke: #000000; stroke-width: 0.8"/>
      </g>
     </g>
     <g id="text_4">
      <!-- 8 -->
      <g transform="translate(408.091477 399.078438) scale(0.1 -0.1)">
       <defs>
        <path id="DejaVuSans-38" d="M 2034 2216 
Q 1584 2216 1326 1975 
Q 1069 1734 1069 1313 
Q 1069 891 1326 650 
Q 1584 409 2034 409 
Q 2484 409 2743 651 
Q 3003 894 3003 1313 
Q 3003 1734 2745 1975 
Q 2488 2216 2034 2216 
z
M 1403 2484 
Q 997 2584 770 2862 
Q 544 3141 544 3541 
Q 544 4100 942 4425 
Q 1341 4750 2034 4750 
Q 2731 4750 3128 4425 
Q 3525 4100 3525 3541 
Q 3525 3141 3298 2862 
Q 3072 2584 2669 2484 
Q 3125 2378 3379 2068 
Q 3634 1759 3634 1313 
Q 3634 634 3220 271 
Q 2806 -91 2034 -91 
Q 1263 -91 848 271 
Q 434 634 434 1313 
Q 434 1759 690 2068 
Q 947 2378 1403 2484 
z
M 1172 3481 
Q 1172 3119 1398 2916 
Q 1625 2713 2034 2713 
Q 2441 2713 2670 2916 
Q 2900 3119 2900 3481 
Q 2900 3844 2670 4047 
Q 2441 4250 2034 4250 
Q 1625 4250 1398 4047 
Q 1172 3844 1172 3481 
z
" transform="scale(0.015625)"/>
       </defs>
       <use xlink:href="#DejaVuSans-38"/>
      </g>
     </g>
    </g>
    <g id="xtick_5">
     <g id="line2d_9">
      <path d="M 495.818182 384.48 
L 495.818182 51.84 
" clip-path="url(#pc352fb9847)" style="fill: none; stroke: #b0b0b0; stroke-opacity: 0.3; stroke-width: 0.8; stroke-linecap: square"/>
     </g>
     <g id="line2d_10">
      <g>
       <use xlink:href="#mc22c78951b" x="495.818182" y="384.48" style="stroke: #000000; stroke-width: 0.8"/>
      </g>
     </g>
     <g id="text_5">
      <!-- 10 -->
      <g transform="translate(489.455682 399.078438) scale(0.1 -0.1)">
       <defs>
        <path id="DejaVuSans-31" d="M 794 531 
L 1825 531 
L 1825 4091 
L 703 3866 
L 703 4441 
L 1819 4666 
L 2450 4666 
L 2450 531 
L 3481 531 
L 3481 0 
L 794 0 
L 794 531 
z
" transform="scale(0.015625)"/>
        <path id="DejaVuSans-30" d="M 2034 4250 
Q 1547 4250 1301 3770 
Q 1056 3291 1056 2328 
Q 1056 1369 1301 889 
Q 1547 409 2034 409 
Q 2525 409 2770 889 
Q 3016 1369 3016 2328 
Q 3016 3291 2770 3770 
Q 2525 4250 2034 4250 
z
M 2034 4750 
Q 2819 4750 3233 4129 
Q 3647 3509 3647 2328 
Q 3647 1150 3233 529 
Q 2819 -91 2034 -91 
Q 1250 -91 836 529 
Q 422 1150 422 2328 
Q 422 3509 836 4129 
Q 1250 4750 2034 4750 
z
" transform="scale(0.015625)"/>
       </defs>
       <use xlink:href="#DejaVuSans-31"/>
       <use xlink:href="#DejaVuSans-30" transform="translate(63.623047 0)"/>
      </g>
     </g>
    </g>
    <g id="xtick_6">
     <g id="line2d_11">
      <path d="M 580.363636 384.48 
L 580.363636 51.84 
" clip-path="url(#pc352fb9847)" style="fill: none; stroke: #b0b0b0; stroke-opacity: 0.3; stroke-width: 0.8; stroke-linecap: square"/>
     </g>
     <g id="line2d_12">
      <g>
       <use xlink:href="#mc22c78951b" x="580.363636" y="384.48" style="stroke: #000000; stroke-width: 0.8"/>
      </g>
     </g>
     <g id="text_6">
      <!-- 12 -->
      <g transform="translate(574.001136 399.078438) scale(0.1 -0.1)">
       <use xlink:href="#DejaVuSans-31"/>
       <use xlink:href="#DejaVuSans-32" transform="translate(63.623047 0)"/>
      </g>
     </g>
    </g>
    <g id="text_7">
     <!-- Number of blocks -->
     <g transform="translate(325.044531 412.756563) scale(0.1 -0.1)">
      <defs>
       <path id="DejaVuSans-4e" d="M 628 4666 
L 1478 4666 
L 3547 763 
L 3547 4666 
L 4159 4666 
L 4159 0 
L 3309 0 
L 1241 3903 
L 1241 0 
L 628 0 
L 628 4666 
z
" transform="scale(0.015625)"/>
       <path id="DejaVuSans-75" d="M 544 1381 
L 544 3500 
L 1119 3500 
L 1119 1403 
Q 1119 906 1312 657 
Q 1506 409 1894 409 
Q 2359 409 2629 706 
Q 2900 1003 2900 1516 
L 2900 3500 
L 3475 3500 
L 3475 0 
L 2900 0 
L 2900 538 
Q 2691 219 2414 64 
Q 2138 -91 1772 -91 
Q 1169 -91 856 284 
Q 544 659 544 1381 
z
M 1991 3584 
L 1991 3584 
z
" transform="scale(0.015625)"/>
       <path id="DejaVuSans-6d" d="M 3328 2828 
Q 3544 3216 3844 3400 
Q 4144 3584 4550 3584 
Q 5097 3584 5394 3201 
Q 5691 2819 5691 2113 
L 5691 0 
L 5113 0 
L 5113 2094 
Q 5113 2597 4934 2840 
Q 4756 3084 4391 3084 
Q 3944 3084 3684 2787 
Q 3425 2491 3425 1978 
L 3425 0 
L 2847 0 
L 2847 2094 
Q 2847 2600 2669 2842 
Q 2491 3084 2119 3084 
Q 1678 3084 1418 2786 
Q 1159 2488 1159 1978 
L 1159 0 
L 581 0 
L 581 3500 
L 1159 3500 
L 1159 2956 
Q 1356 3278 1631 3431 
Q 1906 3584 2284 3584 
Q 2666 3584 2933 3390 
Q 3200 3197 3328 2828 
z
" transform="scale(0.015625)"/>
       <path id="DejaVuSans-62" d="M 3116 1747 
Q 3116 2381 2855 2742 
Q 2594 3103 2138 3103 
Q 1681 3103 1420 2742 
Q 1159 2381 1159 1747 
Q 1159 1113 1420 752 
Q 1681 391 2138 391 
Q 2594 391 2855 752 
Q 3116 1113 3116 1747 
z
M 1159 2969 
Q 1341 3281 1617 3432 
Q 1894 3584 2278 3584 
Q 2916 3584 3314 3078 
Q 3713 2572 3713 1747 
Q 3713 922 3314 415 
Q 2916 -91 2278 -91 
Q 1894 -91 1617 61 
Q 1341 213 1159 525 
L 1159 0 
L 581 0 
L 581 4863 
L 1159 4863 
L 1159 2969 
z
" transform="scale(0.015625)"/>
       <path id="DejaVuSans-65" d="M 3597 1894 
L 3597 1613 
L 953 1613 
Q 991 1019 1311 708 
Q 1631 397 2203 397 
Q 2534 397 2845 478 
Q 3156 559 3463 722 
L 3463 178 
Q 3153 47 2828 -22 
Q 2503 -91 2169 -91 
Q 1331 -91 842 396 
Q 353 884 353 1716 
Q 353 2575 817 3079 
Q 1281 3584 2069 3584 
Q 2775 3584 3186 3129 
Q 3597 2675 3597 1894 
z
M 3022 2063 
Q 3016 2534 2758 2815 
Q 2500 3097 2075 3097 
Q 1594 3097 1305 2825 
Q 1016 2553 972 2059 
L 3022 2063 
z
" transform="scale(0.015625)"/>
       <path id="DejaVuSans-72" d="M 2631 2963 
Q 2534 3019 2420 3045 
Q 2306 3072 2169 3072 
Q 1681 3072 1420 2755 
Q 1159 2438 1159 1844 
L 1159 0 
L 581 0 
L 581 3500 
L 1159 3500 
L 1159 2956 
Q 1341 3275 1631 3429 
Q 1922 3584 2338 3584 
Q 2397 3584 2469 3576 
Q 2541 3569 2628 3553 
L 2631 2963 
z
" transform="scale(0.015625)"/>
       <path id="DejaVuSans-20" transform="scale(0.015625)"/>
       <path id="DejaVuSans-6f" d="M 1959 3097 
Q 1497 3097 1228 2736 
Q 959 2375 959 1747 
Q 959 1119 1226 758 
Q 1494 397 1959 397 
Q 2419 397 2687 759 
Q 2956 1122 2956 1747 
Q 2956 2369 2687 2733 
Q 2419 3097 1959 3097 
z
M 1959 3584 
Q 2709 3584 3137 3096 
Q 3566 2609 3566 1747 
Q 3566 888 3137 398 
Q 2709 -91 1959 -91 
Q 1206 -91 779 398 
Q 353 888 353 1747 
Q 353 2609 779 3096 
Q 1206 3584 1959 3584 
z
" transform="scale(0.015625)"/>
       <path id="DejaVuSans-66" d="M 2375 4863 
L 2375 4384 
L 1825 4384 
Q 1516 4384 1395 4259 
Q 1275 4134 1275 3809 
L 1275 3500 
L 2222 3500 
L 2222 3053 
L 1275 3053 
L 1275 0 
L 697 0 
L 697 3053 
L 147 3053 
L 147 3500 
L 697 3500 
L 697 3744 
Q 697 4328 969 4595 
Q 1241 4863 1831 4863 
L 2375 4863 
z
" transform="scale(0.015625)"/>
       <path id="DejaVuSans-6c" d="M 603 4863 
L 1178 4863 
L 1178 0 
L 603 0 
L 603 4863 
z
" transform="scale(0.015625)"/>
       <path id="DejaVuSans-63" d="M 3122 3366 
L 3122 2828 
Q 2878 2963 2633 3030 
Q 2388 3097 2138 3097 
Q 1578 3097 1268 2742 
Q 959 2388 959 1747 
Q 959 1106 1268 751 
Q 1578 397 2138 397 
Q 2388 397 2633 464 
Q 2878 531 3122 666 
L 3122 134 
Q 2881 22 2623 -34 
Q 2366 -91 2075 -91 
Q 1284 -91 818 406 
Q 353 903 353 1747 
Q 353 2603 823 3093 
Q 1294 3584 2113 3584 
Q 2378 3584 2631 3529 
Q 2884 3475 3122 3366 
z
" transform="scale(0.015625)"/>
       <path id="DejaVuSans-6b" d="M 581 4863 
L 1159 4863 
L 1159 1991 
L 2875 3500 
L 3609 3500 
L 1753 1863 
L 3688 0 
L 2938 0 
L 1159 1709 
L 1159 0 
L 581 0 
L 581 4863 
z
" transform="scale(0.015625)"/>
       <path id="DejaVuSans-73" d="M 2834 3397 
L 2834 2853 
Q 2591 2978 2328 3040 
Q 2066 3103 1784 3103 
Q 1356 3103 1142 2972 
Q 928 2841 928 2578 
Q 928 2378 1081 2264 
Q 1234 2150 1697 2047 
L 1894 2003 
Q 2506 1872 2764 1633 
Q 3022 1394 3022 966 
Q 3022 478 2636 193 
Q 2250 -91 1575 -91 
Q 1294 -91 989 -36 
Q 684 19 347 128 
L 347 722 
Q 666 556 975 473 
Q 1284 391 1588 391 
Q 1994 391 2212 530 
Q 2431 669 2431 922 
Q 2431 1156 2273 1281 
Q 2116 1406 1581 1522 
L 1381 1569 
Q 847 1681 609 1914 
Q 372 2147 372 2553 
Q 372 3047 722 3315 
Q 1072 3584 1716 3584 
Q 2034 3584 2315 3537 
Q 2597 3491 2834 3397 
z
" transform="scale(0.015625)"/>
      </defs>
      <use xlink:href="#DejaVuSans-4e"/>
      <use xlink:href="#DejaVuSans-75" transform="translate(74.804688 0)"/>
      <use xlink:href="#DejaVuSans-6d" transform="translate(138.183594 0)"/>
      <use xlink:href="#DejaVuSans-62" transform="translate(235.595703 0)"/>
      <use xlink:href="#DejaVuSans-65" transform="translate(299.072266 0)"/>
      <use xlink:href="#DejaVuSans-72" transform="translate(360.595703 0)"/>
      <use xlink:href="#DejaVuSans-20" transform="translate(401.708984 0)"/>
      <use xlink:href="#DejaVuSans-6f" transform="translate(433.496094 0)"/>
      <use xlink:href="#DejaVuSans-66" transform="translate(494.677734 0)"/>
      <use xlink:href="#DejaVuSans-20" transform="translate(529.882812 0)"/>
      <use xlink:href="#DejaVuSans-62" transform="translate(561.669922 0)"/>
      <use xlink:href="#DejaVuSans-6c" transform="translate(625.146484 0)"/>
      <use xlink:href="#DejaVuSans-6f" transform="translate(652.929688 0)"/>
      <use xlink:href="#DejaVuSans-63" transform="translate(714.111328 0)"/>
      <use xlink:href="#DejaVuSans-6b" transform="translate(769.091797 0)"/>
      <use xlink:href="#DejaVuSans-73" transform="translate(827.001953 0)"/>
     </g>
    </g>
   </g>
   <g id="matplotlib.axis_2">
    <g id="ytick_1">
     <g id="line2d_13">
      <path d="M 90 384.48 
L 648 384.48 
" clip-path="url(#pc352fb9847)" style="fill: none; stroke: #b0b0b0; stroke-opacity: 0.3; stroke-width: 0.8; stroke-linecap: square"/>
     </g>
     <g id="line2d_14">
      <defs>
       <path id="macbcaaea1d" d="M 0 0 
L -3.5 0 
" style="stroke: #000000; stroke-width: 0.8"/>
      </defs>
      <g>
       <use xlink:href="#macbcaaea1d" x="90" y="384.48" style="stroke: #000000; stroke-width: 0.8"/>
      </g>
     </g>
     <g id="text_8">
      <!-- 0.0 -->
      <g transform="translate(67.096875 388.279219) scale(0.1 -0.1)">
       <defs>
        <path id="DejaVuSans-2e" d="M 684 794 
L 1344 794 
L 1344 0 
L 684 0 
L 684 794 
z
" transform="scale(0.015625)"/>
       </defs>
       <use xlink:href="#DejaVuSans-30"/>
       <use xlink:href="#DejaVuSans-2e" transform="translate(63.623047 0)"/>
       <use xlink:href="#DejaVuSans-30" transform="translate(95.410156 0)"/>
      </g>
     </g>
    </g>
    <g id="ytick_2">
     <g id="line2d_15">
      <path d="M 90 337.169083 
L 648 337.169083 
" clip-path="url(#pc352fb9847)" style="fill: none; stroke: #b0b0b0; stroke-opacity: 0.3; stroke-width: 0.8; stroke-linecap: square"/>
     </g>
     <g id="line2d_16">
      <g>
       <use xlink:href="#macbcaaea1d" x="90" y="337.169083" style="stroke: #000000; stroke-width: 0.8"/>
      </g>
     </g>
     <g id="text_9">
      <!-- 0.2 -->
      <g transform="translate(67.096875 340.968302) scale(0.1 -0.1)">
       <use xlink:href="#DejaVuSans-30"/>
       <use xlink:href="#DejaVuSans-2e" transform="translate(63.623047 0)"/>
       <use xlink:href="#DejaVuSans-32" transform="translate(95.410156 0)"/>
      </g>
     </g>
    </g>
    <g id="ytick_3">
     <g id="line2d_17">
      <path d="M 90 289.858166 
L 648 289.858166 
" clip-path="url(#pc352fb9847)" style="fill: none; stroke: #b0b0b0; stroke-opacity: 0.3; stroke-width: 0.8; stroke-linecap: square"/>
     </g>
     <g id="line2d_18">
      <g>
       <use xlink:href="#macbcaaea1d" x="90" y="289.858166" style="stroke: #000000; stroke-width: 0.8"/>
      </g>
     </g>
     <g id="text_10">
      <!-- 0.4 -->
      <g transform="translate(67.096875 293.657385) scale(0.1 -0.1)">
       <use xlink:href="#DejaVuSans-30"/>
       <use xlink:href="#DejaVuSans-2e" transform="translate(63.623047 0)"/>
       <use xlink:href="#DejaVuSans-34" transform="translate(95.410156 0)"/>
      </g>
     </g>
    </g>
    <g id="ytick_4">
     <g id="line2d_19">
      <path d="M 90 242.547249 
L 648 242.547249 
" clip-path="url(#pc352fb9847)" style="fill: none; stroke: #b0b0b0; stroke-opacity: 0.3; stroke-width: 0.8; stroke-linecap: square"/>
     </g>
     <g id="line2d_20">
      <g>
       <use xlink:href="#macbcaaea1d" x="90" y="242.547249" style="stroke: #000000; stroke-width: 0.8"/>
      </g>
     </g>
     <g id="text_11">
      <!-- 0.6 -->
      <g transform="translate(67.096875 246.346468) scale(0.1 -0.1)">
       <use xlink:href="#DejaVuSans-30"/>
       <use xlink:href="#DejaVuSans-2e" transform="translate(63.623047 0)"/>
       <use xlink:href="#DejaVuSans-36" transform="translate(95.410156 0)"/>
      </g>
     </g>
    </g>
    <g id="ytick_5">
     <g id="line2d_21">
      <path d="M 90 195.236332 
L 648 195.236332 
" clip-path="url(#pc352fb9847)" style="fill: none; stroke: #b0b0b0; stroke-opacity: 0.3; stroke-width: 0.8; stroke-linecap: square"/>
     </g>
     <g id="line2d_22">
      <g>
       <use xlink:href="#macbcaaea1d" x="90" y="195.236332" style="stroke: #000000; stroke-width: 0.8"/>
      </g>
     </g>
     <g id="text_12">
      <!-- 0.8 -->
      <g transform="translate(67.096875 199.035551) scale(0.1 -0.1)">
       <use xlink:href="#DejaVuSans-30"/>
       <use xlink:href="#DejaVuSans-2e" transform="translate(63.623047 0)"/>
       <use xlink:href="#DejaVuSans-38" transform="translate(95.410156 0)"/>
      </g>
     </g>
    </g>
    <g id="ytick_6">
     <g id="line2d_23">
      <path d="M 90 147.925415 
L 648 147.925415 
" clip-path="url(#pc352fb9847)" style="fill: none; stroke: #b0b0b0; stroke-opacity: 0.3; stroke-width: 0.8; stroke-linecap: square"/>
     </g>
     <g id="line2d_24">
      <g>
       <use xlink:href="#macbcaaea1d" x="90" y="147.925415" style="stroke: #000000; stroke-width: 0.8"/>
      </g>
     </g>
     <g id="text_13">
      <!-- 1.0 -->
      <g transform="translate(67.096875 151.724634) scale(0.1 -0.1)">
       <use xlink:href="#DejaVuSans-31"/>
       <use xlink:href="#DejaVuSans-2e" transform="translate(63.623047 0)"/>
       <use xlink:href="#DejaVuSans-30" transform="translate(95.410156 0)"/>
      </g>
     </g>
    </g>
    <g id="ytick_7">
     <g id="line2d_25">
      <path d="M 90 100.614499 
L 648 100.614499 
" clip-path="url(#pc352fb9847)" style="fill: none; stroke: #b0b0b0; stroke-opacity: 0.3; stroke-width: 0.8; stroke-linecap: square"/>
     </g>
     <g id="line2d_26">
      <g>
       <use xlink:href="#macbcaaea1d" x="90" y="100.614499" style="stroke: #000000; stroke-width: 0.8"/>
      </g>
     </g>
     <g id="text_14">
      <!-- 1.2 -->
      <g transform="translate(67.096875 104.413717) scale(0.1 -0.1)">
       <use xlink:href="#DejaVuSans-31"/>
       <use xlink:href="#DejaVuSans-2e" transform="translate(63.623047 0)"/>
       <use xlink:href="#DejaVuSans-32" transform="translate(95.410156 0)"/>
      </g>
     </g>
    </g>
    <g id="ytick_8">
     <g id="line2d_27">
      <path d="M 90 53.303582 
L 648 53.303582 
" clip-path="url(#pc352fb9847)" style="fill: none; stroke: #b0b0b0; stroke-opacity: 0.3; stroke-width: 0.8; stroke-linecap: square"/>
     </g>
     <g id="line2d_28">
      <g>
       <use xlink:href="#macbcaaea1d" x="90" y="53.303582" style="stroke: #000000; stroke-width: 0.8"/>
      </g>
     </g>
     <g id="text_15">
      <!-- 1.4 -->
      <g transform="translate(67.096875 57.1028) scale(0.1 -0.1)">
       <use xlink:href="#DejaVuSans-31"/>
       <use xlink:href="#DejaVuSans-2e" transform="translate(63.623047 0)"/>
       <use xlink:href="#DejaVuSans-34" transform="translate(95.410156 0)"/>
      </g>
     </g>
    </g>
    <g id="text_16">
     <!-- Density -->
     <g transform="translate(61.017187 237.168594) rotate(-90) scale(0.1 -0.1)">
      <defs>
       <path id="DejaVuSans-44" d="M 1259 4147 
L 1259 519 
L 2022 519 
Q 2988 519 3436 956 
Q 3884 1394 3884 2338 
Q 3884 3275 3436 3711 
Q 2988 4147 2022 4147 
L 1259 4147 
z
M 628 4666 
L 1925 4666 
Q 3281 4666 3915 4102 
Q 4550 3538 4550 2338 
Q 4550 1131 3912 565 
Q 3275 0 1925 0 
L 628 0 
L 628 4666 
z
" transform="scale(0.015625)"/>
       <path id="DejaVuSans-6e" d="M 3513 2113 
L 3513 0 
L 2938 0 
L 2938 2094 
Q 2938 2591 2744 2837 
Q 2550 3084 2163 3084 
Q 1697 3084 1428 2787 
Q 1159 2491 1159 1978 
L 1159 0 
L 581 0 
L 581 3500 
L 1159 3500 
L 1159 2956 
Q 1366 3272 1645 3428 
Q 1925 3584 2291 3584 
Q 2894 3584 3203 3211 
Q 3513 2838 3513 2113 
z
" transform="scale(0.015625)"/>
       <path id="DejaVuSans-69" d="M 603 3500 
L 1178 3500 
L 1178 0 
L 603 0 
L 603 3500 
z
M 603 4863 
L 1178 4863 
L 1178 4134 
L 603 4134 
L 603 4863 
z
" transform="scale(0.015625)"/>
       <path id="DejaVuSans-74" d="M 1172 4494 
L 1172 3500 
L 2356 3500 
L 2356 3053 
L 1172 3053 
L 1172 1153 
Q 1172 725 1289 603 
Q 1406 481 1766 481 
L 2356 481 
L 2356 0 
L 1766 0 
Q 1100 0 847 248 
Q 594 497 594 1153 
L 594 3053 
L 172 3053 
L 172 3500 
L 594 3500 
L 594 4494 
L 1172 4494 
z
" transform="scale(0.015625)"/>
       <path id="DejaVuSans-79" d="M 2059 -325 
Q 1816 -950 1584 -1140 
Q 1353 -1331 966 -1331 
L 506 -1331 
L 506 -850 
L 844 -850 
Q 1081 -850 1212 -737 
Q 1344 -625 1503 -206 
L 1606 56 
L 191 3500 
L 800 3500 
L 1894 763 
L 2988 3500 
L 3597 3500 
L 2059 -325 
z
" transform="scale(0.015625)"/>
      </defs>
      <use xlink:href="#DejaVuSans-44"/>
      <use xlink:href="#DejaVuSans-65" transform="translate(77.001953 0)"/>
      <use xlink:href="#DejaVuSans-6e" transform="translate(138.525391 0)"/>
      <use xlink:href="#DejaVuSans-73" transform="translate(201.904297 0)"/>
      <use xlink:href="#DejaVuSans-69" transform="translate(254.003906 0)"/>
      <use xlink:href="#DejaVuSans-74" transform="translate(281.787109 0)"/>
      <use xlink:href="#DejaVuSans-79" transform="translate(320.996094 0)"/>
     </g>
    </g>
   </g>
   <g id="line2d_29">
    <path d="M 115.363636 384.074549 
L 128.426453 383.681996 
L 138.586422 383.173012 
L 147.294967 382.530764 
L 155.277799 381.720502 
L 162.53492 380.753531 
L 169.066329 379.658278 
L 174.872025 378.478139 
L 180.677721 377.079847 
L 186.483418 375.442122 
L 192.289114 373.546396 
L 197.369099 371.664486 
L 202.449083 369.567602 
L 207.529067 367.253475 
L 213.334764 364.346141 
L 219.14046 361.170799 
L 224.946157 357.750011 
L 231.477565 353.650343 
L 239.460398 348.371202 
L 261.957472 333.304047 
L 267.763168 329.767546 
L 272.843153 326.923831 
L 277.197425 324.716255 
L 281.551697 322.754988 
L 285.90597 321.069377 
L 289.53453 319.893976 
L 293.16309 318.940639 
L 296.79165 318.219764 
L 300.420211 317.739282 
L 304.048771 317.504511 
L 307.677331 317.518059 
L 311.305892 317.779775 
L 314.934452 318.286753 
L 318.563012 319.033385 
L 322.191572 320.011462 
L 325.820133 321.21033 
L 329.448693 322.617076 
L 333.802965 324.558415 
L 338.157238 326.7484 
L 343.237222 329.574796 
L 349.042918 333.095963 
L 355.574327 337.326996 
L 366.460008 344.696907 
L 378.071401 352.49346 
L 385.328521 357.103795 
L 391.85993 360.98245 
L 397.665626 364.172466 
L 403.471323 367.095475 
L 408.551307 369.423701 
L 413.631291 371.534693 
L 418.711276 373.430433 
L 424.516972 375.341321 
L 430.322669 376.993263 
L 436.128365 378.40463 
L 441.934062 379.596581 
L 448.46547 380.70355 
L 454.996879 381.594522 
L 462.253999 382.370218 
L 470.962544 383.059159 
L 480.396801 383.576221 
L 492.008194 383.979656 
L 507.248147 384.262648 
L 529.019508 384.421046 
L 574.739368 384.477536 
L 622.636364 384.479953 
L 622.636364 384.479953 
" clip-path="url(#pc352fb9847)" style="fill: none; stroke: #dc143c; stroke-width: 2.2; stroke-linecap: square"/>
   </g>
   <g id="line2d_30">
    <path d="M 115.363636 384.48 
L 145.843543 384.422733 
L 147.294967 384.266204 
L 148.746391 383.808467 
L 149.472103 383.36451 
L 150.197815 382.705377 
L 150.923527 381.776107 
L 151.649239 380.534377 
L 152.374951 378.965775 
L 153.826375 375.018711 
L 155.277799 370.822 
L 156.003512 369.09953 
L 156.729224 367.891969 
L 157.454936 367.345841 
L 158.180648 367.529853 
L 158.90636 368.42069 
L 159.632072 369.90787 
L 161.083496 373.93993 
L 162.53492 378.065912 
L 163.260632 379.790304 
L 163.986344 381.196045 
L 164.712056 382.277619 
L 165.437768 383.06541 
L 166.16348 383.609816 
L 166.889192 383.967334 
L 168.340616 384.323682 
L 170.517753 384.460963 
L 179.226297 384.479998 
L 187.20913 384.387141 
L 188.660554 384.0938 
L 189.386266 383.741805 
L 190.111978 383.128634 
L 190.83769 382.110715 
L 191.563402 380.501635 
L 192.289114 378.082142 
L 193.014826 374.62612 
L 193.740538 369.944744 
L 194.46625 363.945655 
L 195.917675 348.478106 
L 197.369099 331.374344 
L 198.094811 324.027734 
L 198.820523 318.573671 
L 199.546235 315.664798 
L 200.271947 315.664798 
L 200.997659 318.573671 
L 201.723371 324.027734 
L 203.174795 339.800151 
L 204.626219 356.696834 
L 205.351931 363.945655 
L 206.077643 369.944744 
L 206.803355 374.62612 
L 207.529067 378.082142 
L 208.25478 380.501635 
L 208.980492 382.110715 
L 209.706204 383.128634 
L 210.431916 383.741805 
L 211.157628 384.0938 
L 212.609052 384.387141 
L 215.5119 384.476803 
L 227.849005 384.441714 
L 229.300429 384.286608 
L 230.026141 384.072617 
L 230.751853 383.658121 
L 231.477565 382.891978 
L 232.203277 381.541353 
L 232.928989 379.271876 
L 233.654702 375.639886 
L 234.380414 370.109326 
L 235.106126 362.106231 
L 235.831838 351.118629 
L 236.55755 336.837849 
L 238.008974 299.127843 
L 240.18611 236.443201 
L 240.911822 221.335085 
L 241.637534 212.285161 
L 242.363246 210.415804 
L 243.088958 215.963863 
L 243.81467 228.23135 
L 244.540382 245.729747 
L 247.443231 328.461546 
L 248.168943 344.396809 
L 248.894655 357.011422 
L 249.620367 366.451782 
L 250.346079 373.147854 
L 251.071791 377.65796 
L 251.797503 380.546682 
L 252.523215 382.308066 
L 253.248927 383.331379 
L 253.974639 383.898232 
L 254.700351 384.197794 
L 256.151775 384.421666 
L 259.780336 384.479468 
L 269.940304 384.423852 
L 271.391728 384.190194 
L 272.11744 383.862894 
L 272.843153 383.221496 
L 273.568865 382.021941 
L 274.294577 379.88196 
L 275.020289 376.242491 
L 275.746001 370.346108 
L 276.471713 361.254217 
L 277.197425 347.927112 
L 277.923137 329.384547 
L 278.648849 304.946051 
L 279.374561 274.520674 
L 280.825985 199.842758 
L 282.277409 123.638037 
L 283.003121 93.896712 
L 283.728833 74.447988 
L 284.454545 67.68 
L 285.180258 74.447988 
L 285.90597 93.896712 
L 286.631682 123.638037 
L 290.260242 304.946051 
L 290.985954 329.384547 
L 291.711666 347.927112 
L 292.437378 361.254217 
L 293.16309 370.346108 
L 293.888802 376.242491 
L 294.614514 379.88196 
L 295.340226 382.021941 
L 296.065938 383.221496 
L 296.79165 383.862894 
L 297.517362 384.190194 
L 298.968787 384.423852 
L 302.597347 384.479564 
L 312.757316 384.379403 
L 313.483028 384.253909 
L 314.20874 383.993341 
L 314.934452 383.476751 
L 315.660164 382.499222 
L 316.385876 380.734537 
L 317.111588 377.697061 
L 317.8373 372.715509 
L 318.563012 364.937909 
L 319.288724 353.390647 
L 320.014436 337.110907 
L 320.740148 315.357223 
L 321.46586 287.877133 
L 322.917284 218.729105 
L 324.368709 145.207563 
L 325.094421 115.031876 
L 325.820133 93.876804 
L 326.545845 84.309272 
L 327.271557 87.532946 
L 327.997269 103.139384 
L 328.722981 129.193072 
L 330.174405 199.830109 
L 331.625829 272.112568 
L 332.351541 302.321925 
L 333.077253 326.948887 
L 333.802965 345.896818 
L 334.528677 359.698019 
L 335.254389 369.235375 
L 335.980101 375.49868 
L 336.705813 379.412353 
L 337.431526 381.741484 
L 338.157238 383.062683 
L 338.88295 383.777476 
L 339.608662 384.146498 
L 341.060086 384.413976 
L 343.962934 384.478459 
L 354.848615 384.431488 
L 356.300039 384.240188 
L 357.025751 383.980261 
L 357.751463 383.482622 
L 358.477175 382.573578 
L 359.202887 380.990037 
L 359.928599 378.361214 
L 360.654311 374.205694 
L 361.380023 367.957245 
L 362.105735 359.031911 
L 362.831448 346.942046 
L 363.55716 331.44913 
L 365.008584 291.503487 
L 366.460008 247.332252 
L 367.18572 228.3593 
L 367.911432 214.273936 
L 368.637144 206.761639 
L 369.362856 206.761639 
L 370.088568 214.273936 
L 370.81428 228.3593 
L 372.265704 269.092277 
L 373.717128 312.728722 
L 374.44284 331.44913 
L 375.168552 346.942046 
L 375.894265 359.031911 
L 376.619977 367.957245 
L 377.345689 374.205694 
L 378.071401 378.361214 
L 378.797113 380.990037 
L 379.522825 382.573578 
L 380.248537 383.482622 
L 380.974249 383.980261 
L 381.699961 384.240188 
L 383.151385 384.431488 
L 386.779945 384.479581 
L 398.391338 384.406389 
L 399.842762 384.167168 
L 400.568474 383.875551 
L 401.294187 383.361462 
L 402.019899 382.497631 
L 402.745611 381.115186 
L 403.471323 379.010087 
L 404.197035 375.963868 
L 404.922747 371.781654 
L 405.648459 366.345958 
L 407.099883 351.992391 
L 409.277019 328.132722 
L 410.002731 322.382117 
L 410.728443 318.937442 
L 411.454155 318.225909 
L 412.179867 320.337667 
L 412.905579 325.007044 
L 413.631291 331.667462 
L 416.53414 363.157684 
L 417.259852 369.223127 
L 417.985564 374.024629 
L 418.711276 377.617916 
L 419.436988 380.166643 
L 420.1627 381.883326 
L 420.888412 382.98286 
L 421.614124 383.653296 
L 422.339836 384.0428 
L 423.79126 384.372584 
L 425.968396 384.470538 
L 439.756925 384.473128 
L 442.659774 384.350415 
L 444.111198 384.04573 
L 444.83691 383.734882 
L 445.562622 383.25557 
L 446.288334 382.552984 
L 447.014046 381.575447 
L 447.739758 380.287084 
L 448.46547 378.683102 
L 449.916894 374.74619 
L 451.368318 370.728786 
L 452.09403 369.160866 
L 452.819742 368.135558 
L 453.545455 367.778759 
L 454.271167 368.135558 
L 454.996879 369.160866 
L 455.722591 370.728786 
L 459.351151 380.287084 
L 460.076863 381.575447 
L 460.802575 382.552984 
L 461.528287 383.25557 
L 462.253999 383.734882 
L 463.705423 384.237598 
L 465.156847 384.413653 
L 468.785408 384.478779 
L 486.202497 384.423236 
L 488.379633 384.219822 
L 489.831057 383.901532 
L 491.282481 383.397919 
L 494.18533 382.225068 
L 495.636754 381.96796 
L 497.088178 382.125544 
L 498.539602 382.623369 
L 501.44245 383.792443 
L 502.893874 384.157109 
L 505.071011 384.404838 
L 508.699571 384.477209 
L 532.648069 384.431132 
L 539.905189 384.336134 
L 550.065158 384.479539 
L 622.636364 384.48 
L 622.636364 384.48 
" clip-path="url(#pc352fb9847)" style="fill: none; stroke: #006400; stroke-width: 2.2; stroke-linecap: square"/>
   </g>
   <g id="patch_14">
    <path d="M 90 384.48 
L 90 51.84 
" style="fill: none; stroke: #000000; stroke-width: 0.8; stroke-linejoin: miter; stroke-linecap: square"/>
   </g>
   <g id="patch_15">
    <path d="M 648 384.48 
L 648 51.84 
" style="fill: none; stroke: #000000; stroke-width: 0.8; stroke-linejoin: miter; stroke-linecap: square"/>
   </g>
   <g id="patch_16">
    <path d="M 90 384.48 
L 648 384.48 
" style="fill: none; stroke: #000000; stroke-width: 0.8; stroke-linejoin: miter; stroke-linecap: square"/>
   </g>
   <g id="patch_17">
    <path d="M 90 51.84 
L 648 51.84 
" style="fill: none; stroke: #000000; stroke-width: 0.8; stroke-linejoin: miter; stroke-linecap: square"/>
   </g>
   <g id="text_17">
    <g id="patch_18">
     <path d="M 101.16 82.368738 
L 226.264688 82.368738 
Q 229.264688 82.368738 229.264688 79.368738 
L 229.264688 58.4928 
Q 229.264688 55.4928 226.264688 55.4928 
L 101.16 55.4928 
Q 98.16 55.4928 98.16 58.4928 
L 98.16 79.368738 
Q 98.16 82.368738 101.16 82.368738 
z
" style="fill: #ffffff; opacity: 0.8; stroke: #000000; stroke-linejoin: miter"/>
    </g>
    <!-- Gaussian MAE: 0.003293 -->
    <g transform="translate(101.16 66.091237) scale(0.1 -0.1)">
     <defs>
      <path id="DejaVuSans-47" d="M 3809 666 
L 3809 1919 
L 2778 1919 
L 2778 2438 
L 4434 2438 
L 4434 434 
Q 4069 175 3628 42 
Q 3188 -91 2688 -91 
Q 1594 -91 976 548 
Q 359 1188 359 2328 
Q 359 3472 976 4111 
Q 1594 4750 2688 4750 
Q 3144 4750 3555 4637 
Q 3966 4525 4313 4306 
L 4313 3634 
Q 3963 3931 3569 4081 
Q 3175 4231 2741 4231 
Q 1884 4231 1454 3753 
Q 1025 3275 1025 2328 
Q 1025 1384 1454 906 
Q 1884 428 2741 428 
Q 3075 428 3337 486 
Q 3600 544 3809 666 
z
" transform="scale(0.015625)"/>
      <path id="DejaVuSans-61" d="M 2194 1759 
Q 1497 1759 1228 1600 
Q 959 1441 959 1056 
Q 959 750 1161 570 
Q 1363 391 1709 391 
Q 2188 391 2477 730 
Q 2766 1069 2766 1631 
L 2766 1759 
L 2194 1759 
z
M 3341 1997 
L 3341 0 
L 2766 0 
L 2766 531 
Q 2569 213 2275 61 
Q 1981 -91 1556 -91 
Q 1019 -91 701 211 
Q 384 513 384 1019 
Q 384 1609 779 1909 
Q 1175 2209 1959 2209 
L 2766 2209 
L 2766 2266 
Q 2766 2663 2505 2880 
Q 2244 3097 1772 3097 
Q 1472 3097 1187 3025 
Q 903 2953 641 2809 
L 641 3341 
Q 956 3463 1253 3523 
Q 1550 3584 1831 3584 
Q 2591 3584 2966 3190 
Q 3341 2797 3341 1997 
z
" transform="scale(0.015625)"/>
      <path id="DejaVuSans-4d" d="M 628 4666 
L 1569 4666 
L 2759 1491 
L 3956 4666 
L 4897 4666 
L 4897 0 
L 4281 0 
L 4281 4097 
L 3078 897 
L 2444 897 
L 1241 4097 
L 1241 0 
L 628 0 
L 628 4666 
z
" transform="scale(0.015625)"/>
      <path id="DejaVuSans-41" d="M 2188 4044 
L 1331 1722 
L 3047 1722 
L 2188 4044 
z
M 1831 4666 
L 2547 4666 
L 4325 0 
L 3669 0 
L 3244 1197 
L 1141 1197 
L 716 0 
L 50 0 
L 1831 4666 
z
" transform="scale(0.015625)"/>
      <path id="DejaVuSans-45" d="M 628 4666 
L 3578 4666 
L 3578 4134 
L 1259 4134 
L 1259 2753 
L 3481 2753 
L 3481 2222 
L 1259 2222 
L 1259 531 
L 3634 531 
L 3634 0 
L 628 0 
L 628 4666 
z
" transform="scale(0.015625)"/>
      <path id="DejaVuSans-3a" d="M 750 794 
L 1409 794 
L 1409 0 
L 750 0 
L 750 794 
z
M 750 3309 
L 1409 3309 
L 1409 2516 
L 750 2516 
L 750 3309 
z
" transform="scale(0.015625)"/>
      <path id="DejaVuSans-33" d="M 2597 2516 
Q 3050 2419 3304 2112 
Q 3559 1806 3559 1356 
Q 3559 666 3084 287 
Q 2609 -91 1734 -91 
Q 1441 -91 1130 -33 
Q 819 25 488 141 
L 488 750 
Q 750 597 1062 519 
Q 1375 441 1716 441 
Q 2309 441 2620 675 
Q 2931 909 2931 1356 
Q 2931 1769 2642 2001 
Q 2353 2234 1838 2234 
L 1294 2234 
L 1294 2753 
L 1863 2753 
Q 2328 2753 2575 2939 
Q 2822 3125 2822 3475 
Q 2822 3834 2567 4026 
Q 2313 4219 1838 4219 
Q 1578 4219 1281 4162 
Q 984 4106 628 3988 
L 628 4550 
Q 988 4650 1302 4700 
Q 1616 4750 1894 4750 
Q 2613 4750 3031 4423 
Q 3450 4097 3450 3541 
Q 3450 3153 3228 2886 
Q 3006 2619 2597 2516 
z
" transform="scale(0.015625)"/>
      <path id="DejaVuSans-39" d="M 703 97 
L 703 672 
Q 941 559 1184 500 
Q 1428 441 1663 441 
Q 2288 441 2617 861 
Q 2947 1281 2994 2138 
Q 2813 1869 2534 1725 
Q 2256 1581 1919 1581 
Q 1219 1581 811 2004 
Q 403 2428 403 3163 
Q 403 3881 828 4315 
Q 1253 4750 1959 4750 
Q 2769 4750 3195 4129 
Q 3622 3509 3622 2328 
Q 3622 1225 3098 567 
Q 2575 -91 1691 -91 
Q 1453 -91 1209 -44 
Q 966 3 703 97 
z
M 1959 2075 
Q 2384 2075 2632 2365 
Q 2881 2656 2881 3163 
Q 2881 3666 2632 3958 
Q 2384 4250 1959 4250 
Q 1534 4250 1286 3958 
Q 1038 3666 1038 3163 
Q 1038 2656 1286 2365 
Q 1534 2075 1959 2075 
z
" transform="scale(0.015625)"/>
     </defs>
     <use xlink:href="#DejaVuSans-47"/>
     <use xlink:href="#DejaVuSans-61" transform="translate(77.490234 0)"/>
     <use xlink:href="#DejaVuSans-75" transform="translate(138.769531 0)"/>
     <use xlink:href="#DejaVuSans-73" transform="translate(202.148438 0)"/>
     <use xlink:href="#DejaVuSans-73" transform="translate(254.248047 0)"/>
     <use xlink:href="#DejaVuSans-69" transform="translate(306.347656 0)"/>
     <use xlink:href="#DejaVuSans-61" transform="translate(334.130859 0)"/>
     <use xlink:href="#DejaVuSans-6e" transform="translate(395.410156 0)"/>
     <use xlink:href="#DejaVuSans-20" transform="translate(458.789062 0)"/>
     <use xlink:href="#DejaVuSans-4d" transform="translate(490.576172 0)"/>
     <use xlink:href="#DejaVuSans-41" transform="translate(576.855469 0)"/>
     <use xlink:href="#DejaVuSans-45" transform="translate(645.263672 0)"/>
     <use xlink:href="#DejaVuSans-3a" transform="translate(708.447266 0)"/>
     <use xlink:href="#DejaVuSans-20" transform="translate(742.138672 0)"/>
     <use xlink:href="#DejaVuSans-30" transform="translate(773.925781 0)"/>
     <use xlink:href="#DejaVuSans-2e" transform="translate(837.548828 0)"/>
     <use xlink:href="#DejaVuSans-30" transform="translate(869.335938 0)"/>
     <use xlink:href="#DejaVuSans-30" transform="translate(932.958984 0)"/>
     <use xlink:href="#DejaVuSans-33" transform="translate(996.582031 0)"/>
     <use xlink:href="#DejaVuSans-32" transform="translate(1060.205078 0)"/>
     <use xlink:href="#DejaVuSans-39" transform="translate(1123.828125 0)"/>
     <use xlink:href="#DejaVuSans-33" transform="translate(1187.451172 0)"/>
    </g>
    <!-- KDE MAE: 0.000000 -->
    <g transform="translate(101.16 77.28905) scale(0.1 -0.1)">
     <defs>
      <path id="DejaVuSans-4b" d="M 628 4666 
L 1259 4666 
L 1259 2694 
L 3353 4666 
L 4166 4666 
L 1850 2491 
L 4331 0 
L 3500 0 
L 1259 2247 
L 1259 0 
L 628 0 
L 628 4666 
z
" transform="scale(0.015625)"/>
     </defs>
     <use xlink:href="#DejaVuSans-4b"/>
     <use xlink:href="#DejaVuSans-44" transform="translate(65.576172 0)"/>
     <use xlink:href="#DejaVuSans-45" transform="translate(142.578125 0)"/>
     <use xlink:href="#DejaVuSans-20" transform="translate(205.761719 0)"/>
     <use xlink:href="#DejaVuSans-4d" transform="translate(237.548828 0)"/>
     <use xlink:href="#DejaVuSans-41" transform="translate(323.828125 0)"/>
     <use xlink:href="#DejaVuSans-45" transform="translate(392.236328 0)"/>
     <use xlink:href="#DejaVuSans-3a" transform="translate(455.419922 0)"/>
     <use xlink:href="#DejaVuSans-20" transform="translate(489.111328 0)"/>
     <use xlink:href="#DejaVuSans-30" transform="translate(520.898438 0)"/>
     <use xlink:href="#DejaVuSans-2e" transform="translate(584.521484 0)"/>
     <use xlink:href="#DejaVuSans-30" transform="translate(616.308594 0)"/>
     <use xlink:href="#DejaVuSans-30" transform="translate(679.931641 0)"/>
     <use xlink:href="#DejaVuSans-30" transform="translate(743.554688 0)"/>
     <use xlink:href="#DejaVuSans-30" transform="translate(807.177734 0)"/>
     <use xlink:href="#DejaVuSans-30" transform="translate(870.800781 0)"/>
     <use xlink:href="#DejaVuSans-30" transform="translate(934.423828 0)"/>
    </g>
   </g>
   <g id="text_18">
    <!-- Distribution fit comparison: Gaussian vs KDE -->
    <g transform="translate(234.728438 45.84) scale(0.12 -0.12)">
     <defs>
      <path id="DejaVuSans-70" d="M 1159 525 
L 1159 -1331 
L 581 -1331 
L 581 3500 
L 1159 3500 
L 1159 2969 
Q 1341 3281 1617 3432 
Q 1894 3584 2278 3584 
Q 2916 3584 3314 3078 
Q 3713 2572 3713 1747 
Q 3713 922 3314 415 
Q 2916 -91 2278 -91 
Q 1894 -91 1617 61 
Q 1341 213 1159 525 
z
M 3116 1747 
Q 3116 2381 2855 2742 
Q 2594 3103 2138 3103 
Q 1681 3103 1420 2742 
Q 1159 2381 1159 1747 
Q 1159 1113 1420 752 
Q 1681 391 2138 391 
Q 2594 391 2855 752 
Q 3116 1113 3116 1747 
z
" transform="scale(0.015625)"/>
      <path id="DejaVuSans-76" d="M 191 3500 
L 800 3500 
L 1894 563 
L 2988 3500 
L 3597 3500 
L 2284 0 
L 1503 0 
L 191 3500 
z
" transform="scale(0.015625)"/>
     </defs>
     <use xlink:href="#DejaVuSans-44"/>
     <use xlink:href="#DejaVuSans-69" transform="translate(77.001953 0)"/>
     <use xlink:href="#DejaVuSans-73" transform="translate(104.785156 0)"/>
     <use xlink:href="#DejaVuSans-74" transform="translate(156.884766 0)"/>
     <use xlink:href="#DejaVuSans-72" transform="translate(196.09375 0)"/>
     <use xlink:href="#DejaVuSans-69" transform="translate(237.207031 0)"/>
     <use xlink:href="#DejaVuSans-62" transform="translate(264.990234 0)"/>
     <use xlink:href="#DejaVuSans-75" transform="translate(328.466797 0)"/>
     <use xlink:href="#DejaVuSans-74" transform="translate(391.845703 0)"/>
     <use xlink:href="#DejaVuSans-69" transform="translate(431.054688 0)"/>
     <use xlink:href="#DejaVuSans-6f" transform="translate(458.837891 0)"/>
     <use xlink:href="#DejaVuSans-6e" transform="translate(520.019531 0)"/>
     <use xlink:href="#DejaVuSans-20" transform="translate(583.398438 0)"/>
     <use xlink:href="#DejaVuSans-66" transform="translate(615.185547 0)"/>
     <use xlink:href="#DejaVuSans-69" transform="translate(650.390625 0)"/>
     <use xlink:href="#DejaVuSans-74" transform="translate(678.173828 0)"/>
     <use xlink:href="#DejaVuSans-20" transform="translate(717.382812 0)"/>
     <use xlink:href="#DejaVuSans-63" transform="translate(749.169922 0)"/>
     <use xlink:href="#DejaVuSans-6f" transform="translate(804.150391 0)"/>
     <use xlink:href="#DejaVuSans-6d" transform="translate(865.332031 0)"/>
     <use xlink:href="#DejaVuSans-70" transform="translate(962.744141 0)"/>
     <use xlink:href="#DejaVuSans-61" transform="translate(1026.220703 0)"/>
     <use xlink:href="#DejaVuSans-72" transform="translate(1087.5 0)"/>
     <use xlink:href="#DejaVuSans-69" transform="translate(1128.613281 0)"/>
     <use xlink:href="#DejaVuSans-73" transform="translate(1156.396484 0)"/>
     <use xlink:href="#DejaVuSans-6f" transform="translate(1208.496094 0)"/>
     <use xlink:href="#DejaVuSans-6e" transform="translate(1269.677734 0)"/>
     <use xlink:href="#DejaVuSans-3a" transform="translate(1333.056641 0)"/>
     <use xlink:href="#DejaVuSans-20" transform="translate(1366.748047 0)"/>
     <use xlink:href="#DejaVuSans-47" transform="translate(1398.535156 0)"/>
     <use xlink:href="#DejaVuSans-61" transform="translate(1476.025391 0)"/>
     <use xlink:href="#DejaVuSans-75" transform="translate(1537.304688 0)"/>
     <use xlink:href="#DejaVuSans-73" transform="translate(1600.683594 0)"/>
     <use xlink:href="#DejaVuSans-73" transform="translate(1652.783203 0)"/>
     <use xlink:href="#DejaVuSans-69" transform="translate(1704.882812 0)"/>
     <use xlink:href="#DejaVuSans-61" transform="translate(1732.666016 0)"/>
     <use xlink:href="#DejaVuSans-6e" transform="translate(1793.945312 0)"/>
     <use xlink:href="#DejaVuSans-20" transform="translate(1857.324219 0)"/>
     <use xlink:href="#DejaVuSans-76" transform="translate(1889.111328 0)"/>
     <use xlink:href="#DejaVuSans-73" transform="translate(1948.291016 0)"/>
     <use xlink:href="#DejaVuSans-20" transform="translate(2000.390625 0)"/>
     <use xlink:href="#DejaVuSans-4b" transform="translate(2032.177734 0)"/>
     <use xlink:href="#DejaVuSans-44" transform="translate(2097.753906 0)"/>
     <use xlink:href="#DejaVuSans-45" transform="translate(2174.755859 0)"/>
    </g>
   </g>
   <g id="legend_1">
    <g id="patch_19">
     <path d="M 353.301562 103.874375 
L 641 103.874375 
Q 643 103.874375 643 101.874375 
L 643 58.84 
Q 643 56.84 641 56.84 
L 353.301562 56.84 
Q 351.301562 56.84 351.301562 58.84 
L 351.301562 101.874375 
Q 351.301562 103.874375 353.301562 103.874375 
z
" style="fill: #ffffff; opacity: 0.8; stroke: #cccccc; stroke-linejoin: miter"/>
    </g>
    <g id="line2d_31">
     <path d="M 355.301562 64.938437 
L 365.301562 64.938437 
L 375.301562 64.938437 
" style="fill: none; stroke: #dc143c; stroke-width: 2.2; stroke-linecap: square"/>
    </g>
    <g id="text_19">
     <!-- Gaussian fit (mu=5.50, sigma=1.41, MAE=0.0033) -->
     <g transform="translate(383.301562 68.438437) scale(0.1 -0.1)">
      <defs>
       <path id="DejaVuSans-28" d="M 1984 4856 
Q 1566 4138 1362 3434 
Q 1159 2731 1159 2009 
Q 1159 1288 1364 580 
Q 1569 -128 1984 -844 
L 1484 -844 
Q 1016 -109 783 600 
Q 550 1309 550 2009 
Q 550 2706 781 3412 
Q 1013 4119 1484 4856 
L 1984 4856 
z
" transform="scale(0.015625)"/>
       <path id="DejaVuSans-3d" d="M 678 2906 
L 4684 2906 
L 4684 2381 
L 678 2381 
L 678 2906 
z
M 678 1631 
L 4684 1631 
L 4684 1100 
L 678 1100 
L 678 1631 
z
" transform="scale(0.015625)"/>
       <path id="DejaVuSans-35" d="M 691 4666 
L 3169 4666 
L 3169 4134 
L 1269 4134 
L 1269 2991 
Q 1406 3038 1543 3061 
Q 1681 3084 1819 3084 
Q 2600 3084 3056 2656 
Q 3513 2228 3513 1497 
Q 3513 744 3044 326 
Q 2575 -91 1722 -91 
Q 1428 -91 1123 -41 
Q 819 9 494 109 
L 494 744 
Q 775 591 1075 516 
Q 1375 441 1709 441 
Q 2250 441 2565 725 
Q 2881 1009 2881 1497 
Q 2881 1984 2565 2268 
Q 2250 2553 1709 2553 
Q 1456 2553 1204 2497 
Q 953 2441 691 2322 
L 691 4666 
z
" transform="scale(0.015625)"/>
       <path id="DejaVuSans-2c" d="M 750 794 
L 1409 794 
L 1409 256 
L 897 -744 
L 494 -744 
L 750 256 
L 750 794 
z
" transform="scale(0.015625)"/>
       <path id="DejaVuSans-67" d="M 2906 1791 
Q 2906 2416 2648 2759 
Q 2391 3103 1925 3103 
Q 1463 3103 1205 2759 
Q 947 2416 947 1791 
Q 947 1169 1205 825 
Q 1463 481 1925 481 
Q 2391 481 2648 825 
Q 2906 1169 2906 1791 
z
M 3481 434 
Q 3481 -459 3084 -895 
Q 2688 -1331 1869 -1331 
Q 1566 -1331 1297 -1286 
Q 1028 -1241 775 -1147 
L 775 -588 
Q 1028 -725 1275 -790 
Q 1522 -856 1778 -856 
Q 2344 -856 2625 -561 
Q 2906 -266 2906 331 
L 2906 616 
Q 2728 306 2450 153 
Q 2172 0 1784 0 
Q 1141 0 747 490 
Q 353 981 353 1791 
Q 353 2603 747 3093 
Q 1141 3584 1784 3584 
Q 2172 3584 2450 3431 
Q 2728 3278 2906 2969 
L 2906 3500 
L 3481 3500 
L 3481 434 
z
" transform="scale(0.015625)"/>
       <path id="DejaVuSans-29" d="M 513 4856 
L 1013 4856 
Q 1481 4119 1714 3412 
Q 1947 2706 1947 2009 
Q 1947 1309 1714 600 
Q 1481 -109 1013 -844 
L 513 -844 
Q 928 -128 1133 580 
Q 1338 1288 1338 2009 
Q 1338 2731 1133 3434 
Q 928 4138 513 4856 
z
" transform="scale(0.015625)"/>
      </defs>
      <use xlink:href="#DejaVuSans-47"/>
      <use xlink:href="#DejaVuSans-61" transform="translate(77.490234 0)"/>
      <use xlink:href="#DejaVuSans-75" transform="translate(138.769531 0)"/>
      <use xlink:href="#DejaVuSans-73" transform="translate(202.148438 0)"/>
      <use xlink:href="#DejaVuSans-73" transform="translate(254.248047 0)"/>
      <use xlink:href="#DejaVuSans-69" transform="translate(306.347656 0)"/>
      <use xlink:href="#DejaVuSans-61" transform="translate(334.130859 0)"/>
      <use xlink:href="#DejaVuSans-6e" transform="translate(395.410156 0)"/>
      <use xlink:href="#DejaVuSans-20" transform="translate(458.789062 0)"/>
      <use xlink:href="#DejaVuSans-66" transform="translate(490.576172 0)"/>
      <use xlink:href="#DejaVuSans-69" transform="translate(525.78125 0)"/>
      <use xlink:href="#DejaVuSans-74" transform="translate(553.564453 0)"/>
      <use xlink:href="#DejaVuSans-20" transform="translate(592.773438 0)"/>
      <use xlink:href="#DejaVuSans-28" transform="translate(624.560547 0)"/>
      <use xlink:href="#DejaVuSans-6d" transform="translate(663.574219 0)"/>
      <use xlink:href="#DejaVuSans-75" transform="translate(760.986328 0)"/>
      <use xlink:href="#DejaVuSans-3d" transform="translate(824.365234 0)"/>
      <use xlink:href="#DejaVuSans-35" transform="translate(908.154297 0)"/>
      <use xlink:href="#DejaVuSans-2e" transform="translate(971.777344 0)"/>
      <use xlink:href="#DejaVuSans-35" transform="translate(1003.564453 0)"/>
      <use xlink:href="#DejaVuSans-30" transform="translate(1067.1875 0)"/>
      <use xlink:href="#DejaVuSans-2c" transform="translate(1130.810547 0)"/>
      <use xlink:href="#DejaVuSans-20" transform="translate(1162.597656 0)"/>
      <use xlink:href="#DejaVuSans-73" transform="translate(1194.384766 0)"/>
      <use xlink:href="#DejaVuSans-69" transform="translate(1246.484375 0)"/>
      <use xlink:href="#DejaVuSans-67" transform="translate(1274.267578 0)"/>
      <use xlink:href="#DejaVuSans-6d" transform="translate(1337.744141 0)"/>
      <use xlink:href="#DejaVuSans-61" transform="translate(1435.15625 0)"/>
      <use xlink:href="#DejaVuSans-3d" transform="translate(1496.435547 0)"/>
      <use xlink:href="#DejaVuSans-31" transform="translate(1580.224609 0)"/>
      <use xlink:href="#DejaVuSans-2e" transform="translate(1643.847656 0)"/>
      <use xlink:href="#DejaVuSans-34" transform="translate(1675.634766 0)"/>
      <use xlink:href="#DejaVuSans-31" transform="translate(1739.257812 0)"/>
      <use xlink:href="#DejaVuSans-2c" transform="translate(1802.880859 0)"/>
      <use xlink:href="#DejaVuSans-20" transform="translate(1834.667969 0)"/>
      <use xlink:href="#DejaVuSans-4d" transform="translate(1866.455078 0)"/>
      <use xlink:href="#DejaVuSans-41" transform="translate(1952.734375 0)"/>
      <use xlink:href="#DejaVuSans-45" transform="translate(2021.142578 0)"/>
      <use xlink:href="#DejaVuSans-3d" transform="translate(2084.326172 0)"/>
      <use xlink:href="#DejaVuSans-30" transform="translate(2168.115234 0)"/>
      <use xlink:href="#DejaVuSans-2e" transform="translate(2231.738281 0)"/>
      <use xlink:href="#DejaVuSans-30" transform="translate(2263.525391 0)"/>
      <use xlink:href="#DejaVuSans-30" transform="translate(2327.148438 0)"/>
      <use xlink:href="#DejaVuSans-33" transform="translate(2390.771484 0)"/>
      <use xlink:href="#DejaVuSans-33" transform="translate(2454.394531 0)"/>
      <use xlink:href="#DejaVuSans-29" transform="translate(2518.017578 0)"/>
     </g>
    </g>
    <g id="line2d_32">
     <path d="M 355.301562 79.616562 
L 365.301562 79.616562 
L 375.301562 79.616562 
" style="fill: none; stroke: #006400; stroke-width: 2.2; stroke-linecap: square"/>
    </g>
    <g id="text_20">
     <!-- KDE fit (h=0.083, MAE=0.0000) -->
     <g transform="translate(383.301562 83.116562) scale(0.1 -0.1)">
      <defs>
       <path id="DejaVuSans-68" d="M 3513 2113 
L 3513 0 
L 2938 0 
L 2938 2094 
Q 2938 2591 2744 2837 
Q 2550 3084 2163 3084 
Q 1697 3084 1428 2787 
Q 1159 2491 1159 1978 
L 1159 0 
L 581 0 
L 581 4863 
L 1159 4863 
L 1159 2956 
Q 1366 3272 1645 3428 
Q 1925 3584 2291 3584 
Q 2894 3584 3203 3211 
Q 3513 2838 3513 2113 
z
" transform="scale(0.015625)"/>
      </defs>
      <use xlink:href="#DejaVuSans-4b"/>
      <use xlink:href="#DejaVuSans-44" transform="translate(65.576172 0)"/>
      <use xlink:href="#DejaVuSans-45" transform="translate(142.578125 0)"/>
      <use xlink:href="#DejaVuSans-20" transform="translate(205.761719 0)"/>
      <use xlink:href="#DejaVuSans-66" transform="translate(237.548828 0)"/>
      <use xlink:href="#DejaVuSans-69" transform="translate(272.753906 0)"/>
      <use xlink:href="#DejaVuSans-74" transform="translate(300.537109 0)"/>
      <use xlink:href="#DejaVuSans-20" transform="translate(339.746094 0)"/>
      <use xlink:href="#DejaVuSans-28" transform="translate(371.533203 0)"/>
      <use xlink:href="#DejaVuSans-68" transform="translate(410.546875 0)"/>
      <use xlink:href="#DejaVuSans-3d" transform="translate(473.925781 0)"/>
      <use xlink:href="#DejaVuSans-30" transform="translate(557.714844 0)"/>
      <use xlink:href="#DejaVuSans-2e" transform="translate(621.337891 0)"/>
      <use xlink:href="#DejaVuSans-30" transform="translate(653.125 0)"/>
      <use xlink:href="#DejaVuSans-38" transform="translate(716.748047 0)"/>
      <use xlink:href="#DejaVuSans-33" transform="translate(780.371094 0)"/>
      <use xlink:href="#DejaVuSans-2c" transform="translate(843.994141 0)"/>
      <use xlink:href="#DejaVuSans-20" transform="translate(875.78125 0)"/>
      <use xlink:href="#DejaVuSans-4d" transform="translate(907.568359 0)"/>
      <use xlink:href="#DejaVuSans-41" transform="translate(993.847656 0)"/>
      <use xlink:href="#DejaVuSans-45" transform="translate(1062.255859 0)"/>
      <use xlink:href="#DejaVuSans-3d" transform="translate(1125.439453 0)"/>
      <use xlink:href="#DejaVuSans-30" transform="translate(1209.228516 0)"/>
      <use xlink:href="#DejaVuSans-2e" transform="translate(1272.851562 0)"/>
      <use xlink:href="#DejaVuSans-30" transform="translate(1304.638672 0)"/>
      <use xlink:href="#DejaVuSans-30" transform="translate(1368.261719 0)"/>
      <use xlink:href="#DejaVuSans-30" transform="translate(1431.884766 0)"/>
      <use xlink:href="#DejaVuSans-30" transform="translate(1495.507812 0)"/>
      <use xlink:href="#DejaVuSans-29" transform="translate(1559.130859 0)"/>
     </g>
    </g>
    <g id="patch_20">
     <path d="M 355.301562 97.794687 
L 375.301562 97.794687 
L 375.301562 90.794687 
L 355.301562 90.794687 
z
" style="fill: #1f77b4; fill-opacity: 0.3; stroke: #000000; stroke-linejoin: miter"/>
    </g>
    <g id="text_21">
     <!-- Observed distribution -->
     <g transform="translate(383.301562 97.794687) scale(0.1 -0.1)">
      <defs>
       <path id="DejaVuSans-4f" d="M 2522 4238 
Q 1834 4238 1429 3725 
Q 1025 3213 1025 2328 
Q 1025 1447 1429 934 
Q 1834 422 2522 422 
Q 3209 422 3611 934 
Q 4013 1447 4013 2328 
Q 4013 3213 3611 3725 
Q 3209 4238 2522 4238 
z
M 2522 4750 
Q 3503 4750 4090 4092 
Q 4678 3434 4678 2328 
Q 4678 1225 4090 567 
Q 3503 -91 2522 -91 
Q 1538 -91 948 565 
Q 359 1222 359 2328 
Q 359 3434 948 4092 
Q 1538 4750 2522 4750 
z
" transform="scale(0.015625)"/>
       <path id="DejaVuSans-64" d="M 2906 2969 
L 2906 4863 
L 3481 4863 
L 3481 0 
L 2906 0 
L 2906 525 
Q 2725 213 2448 61 
Q 2172 -91 1784 -91 
Q 1150 -91 751 415 
Q 353 922 353 1747 
Q 353 2572 751 3078 
Q 1150 3584 1784 3584 
Q 2172 3584 2448 3432 
Q 2725 3281 2906 2969 
z
M 947 1747 
Q 947 1113 1208 752 
Q 1469 391 1925 391 
Q 2381 391 2643 752 
Q 2906 1113 2906 1747 
Q 2906 2381 2643 2742 
Q 2381 3103 1925 3103 
Q 1469 3103 1208 2742 
Q 947 2381 947 1747 
z
" transform="scale(0.015625)"/>
      </defs>
      <use xlink:href="#DejaVuSans-4f"/>
      <use xlink:href="#DejaVuSans-62" transform="translate(78.710938 0)"/>
      <use xlink:href="#DejaVuSans-73" transform="translate(142.1875 0)"/>
      <use xlink:href="#DejaVuSans-65" transform="translate(194.287109 0)"/>
      <use xlink:href="#DejaVuSans-72" transform="translate(255.810547 0)"/>
      <use xlink:href="#DejaVuSans-76" transform="translate(296.923828 0)"/>
      <use xlink:href="#DejaVuSans-65" transform="translate(356.103516 0)"/>
      <use xlink:href="#DejaVuSans-64" transform="translate(417.626953 0)"/>
      <use xlink:href="#DejaVuSans-20" transform="translate(481.103516 0)"/>
      <use xlink:href="#DejaVuSans-64" transform="translate(512.890625 0)"/>
      <use xlink:href="#DejaVuSans-69" transform="translate(576.367188 0)"/>
      <use xlink:href="#DejaVuSans-73" transform="translate(604.150391 0)"/>
      <use xlink:href="#DejaVuSans-74" transform="translate(656.25 0)"/>
      <use xlink:href="#DejaVuSans-72" transform="translate(695.458984 0)"/>
      <use xlink:href="#DejaVuSans-69" transform="translate(736.572266 0)"/>
      <use xlink:href="#DejaVuSans-62" transform="translate(764.355469 0)"/>
      <use xlink:href="#DejaVuSans-75" transform="translate(827.832031 0)"/>
      <use xlink:href="#DejaVuSans-74" transform="translate(891.210938 0)"/>
      <use xlink:href="#DejaVuSans-69" transform="translate(930.419922 0)"/>
      <use xlink:href="#DejaVuSans-6f" transform="translate(958.203125 0)"/>
      <use xlink:href="#DejaVuSans-6e" transform="translate(1019.384766 0)"/>
     </g>
    </g>
   </g>
  </g>
 </g>
 <defs>
  <clipPath id="pc352fb9847">
   <rect x="90" y="51.84" width="558" height="332.64"/>
  </clipPath>
 </defs>
</svg>
